<svg width="40" height="40" viewBox="0 0 40 40" fill="none" xmlns="http://www.w3.org/2000/svg">
<rect width="40" height="40" fill="#290742"/>
<path d="M30.16 27H35.16V32H30.16V27Z" fill="#4FFF4B"/>
<path d="M21.3 19.312C22.764 19.624 23.94 20.356 24.828 21.508C25.716 22.636 26.16 23.932 26.16 25.396C26.16 27.508 25.416 29.188 23.928 30.436C22.464 31.66 20.412 32.272 17.772 32.272H6V7H17.376C19.944 7 21.948 7.588 23.388 8.764C24.852 9.94 25.584 11.536 25.584 13.552C25.584 15.04 25.188 16.276 24.396 17.26C23.628 18.244 22.596 18.928 21.3 19.312ZM12.156 17.224H16.188C17.196 17.224 17.964 17.008 18.492 16.576C19.044 16.12 19.32 15.46 19.32 14.596C19.32 13.732 19.044 13.072 18.492 12.616C17.964 12.16 17.196 11.932 16.188 11.932H12.156V17.224ZM16.692 27.304C17.724 27.304 18.516 27.076 19.068 26.62C19.644 26.14 19.932 25.456 19.932 24.568C19.932 23.68 19.632 22.984 19.032 22.48C18.456 21.976 17.652 21.724 16.62 21.724H12.156V27.304H16.692Z" fill="white"/>
</svg>
